<?xml version="1.0" encoding="UTF-8"?>
<svg id="Layer_1" data-name="Layer 1" xmlns="http://www.w3.org/2000/svg" xmlns:xlink="http://www.w3.org/1999/xlink" viewBox="0 0 1812.71 494.67">
  <defs>
    <style>
      .cls-1 {
        clip-path: url(#clippath-6);
      }

      .cls-2 {
        clip-path: url(#clippath-7);
      }

      .cls-3 {
        clip-path: url(#clippath-4);
      }

      .cls-4 {
        clip-path: url(#clippath-9);
      }

      .cls-5 {
        clip-path: url(#clippath-10);
      }

      .cls-6 {
        clip-path: url(#clippath-11);
      }

      .cls-7 {
        fill: none;
      }

      .cls-8 {
        clip-path: url(#clippath-1);
      }

      .cls-9 {
        clip-path: url(#clippath-5);
      }

      .cls-10 {
        clip-path: url(#clippath-8);
      }

      .cls-11 {
        clip-path: url(#clippath-3);
      }

      .cls-12 {
        clip-path: url(#clippath-12);
      }

      .cls-13 {
        clip-path: url(#clippath-14);
      }

      .cls-14 {
        fill: #323653;
      }

      .cls-15 {
        clip-path: url(#clippath-2);
      }

      .cls-16 {
        clip-path: url(#clippath-13);
      }

      .cls-17 {
        fill: #8fadc5;
        fill-rule: evenodd;
      }

      .cls-18 {
        clip-path: url(#clippath);
      }
      @media (prefers-color-scheme: dark) {
        .cls-14 {
          fill: #ddeffdff;
        }
        .cls-17 {
          fill: #5a6a87ff;
        }
      }
    </style>
    <clipPath id="clippath">
      <rect class="cls-7" x="94.94" y="212" width="376" height="116"/>
    </clipPath>
    <clipPath id="clippath-1">
      <rect class="cls-7" x="247.38" y="80.59" width="70" height="381" transform="translate(-44.42 486.57) rotate(-77.23)"/>
    </clipPath>
    <clipPath id="clippath-2">
      <rect class="cls-7" x="247.38" y="80.59" width="70" height="381" transform="translate(-44.42 486.57) rotate(-77.23)"/>
    </clipPath>
    <clipPath id="clippath-3">
      <rect class="cls-7" x="97.61" y="162.67" width="368" height="109.33"/>
    </clipPath>
    <clipPath id="clippath-4">
      <rect class="cls-7" x="92.17" y="186.03" width="381" height="70" transform="translate(-45.93 76.87) rotate(-14.34)"/>
    </clipPath>
    <clipPath id="clippath-5">
      <rect class="cls-7" x="92.17" y="186.03" width="381" height="70" transform="translate(-45.93 76.87) rotate(-14.34)"/>
    </clipPath>
    <clipPath id="clippath-6">
      <rect class="cls-7" x="140.28" y="25.33" width="218.67" height="318.67"/>
    </clipPath>
    <clipPath id="clippath-7">
      <rect class="cls-7" x="61.69" y="151.89" width="381" height="70" transform="translate(-46.9 282.15) rotate(-54.21)"/>
    </clipPath>
    <clipPath id="clippath-8">
      <rect class="cls-7" x="61.69" y="151.89" width="381" height="70" transform="translate(-46.9 282.15) rotate(-54.21)"/>
    </clipPath>
    <clipPath id="clippath-9">
      <rect class="cls-7" x="58.8" y="139.95" width="245.73" height="245.73"/>
    </clipPath>
    <clipPath id="clippath-10">
      <path class="cls-7" d="M181.66,139.95c-67.86,0-122.86,55.01-122.86,122.87s55.01,122.86,122.86,122.86,122.86-55.01,122.86-122.86-55.01-122.87-122.86-122.87Z"/>
    </clipPath>
    <clipPath id="clippath-11">
      <rect class="cls-7" x="57.61" y="138.67" width="248" height="248"/>
    </clipPath>
    <clipPath id="clippath-12">
      <rect class="cls-7" x="58.8" y="139.95" width="245.73" height="245.73"/>
    </clipPath>
    <clipPath id="clippath-13">
      <path class="cls-7" d="M181.66,139.95c-67.86,0-122.86,55.01-122.86,122.87s55.01,122.86,122.86,122.86,122.86-55.01,122.86-122.86-55.01-122.87-122.86-122.87Z"/>
    </clipPath>
    <clipPath id="clippath-14">
      <rect class="cls-7" width="476" height="494.67"/>
    </clipPath>
  </defs>
  <g class="cls-18">
    <g class="cls-8">
      <g class="cls-15">
        <path class="cls-14" d="M95.99,231.64s1.34-.89,3.9-2.44c.64-.39,1.35-.81,2.14-1.29.81-.44,1.71-.9,2.68-1.41.98-.51,2.05-1.06,3.17-1.64,1.14-.53,2.36-1.07,3.66-1.65,2.59-1.2,5.54-2.27,8.78-3.46,3.27-1.07,6.85-2.23,10.76-3.15,7.8-1.93,16.89-3.34,26.9-3.75,10.03-.45,20.93.24,32.23,2.01,5.65.89,11.41,2.04,17.17,3.49,1.44.36,2.91.71,4.35,1.1,1.44.41,2.89.81,4.35,1.22,1.46.4,2.89.86,4.35,1.29,1.45.44,2.92.89,4.36,1.38,5.82,1.88,11.59,4.04,17.39,6.28,2.87,1.17,5.77,2.33,8.63,3.55,2.89,1.2,5.71,2.49,8.57,3.74,11.36,5.14,22.55,10.7,33.47,16.31,10.91,5.64,21.59,11.3,32.01,16.65,10.42,5.33,20.56,10.4,30.45,14.79.61.28,1.23.55,1.85.83.61.27,1.23.53,1.84.79,1.23.54,2.45,1.06,3.66,1.59,1.22.49,2.43.99,3.65,1.48,1.2.53,2.41.97,3.6,1.44,2.4.96,4.78,1.8,7.14,2.68,1.18.45,2.35.81,3.53,1.21,1.17.39,2.33.83,3.49,1.17,9.27,2.96,18.21,5.23,26.68,6.64,8.45,1.44,16.43,2.14,23.64,2.35,3.61.15,7.01.06,10.2.04,1.59-.06,3.13-.13,4.59-.18.36-.02.73-.03,1.09-.04.35-.03.71-.05,1.06-.08.7-.05,1.39-.1,2.06-.15,1.33-.11,2.63-.16,3.82-.28,1.21-.12,2.34-.23,3.39-.33,1.06-.1,2.05-.19,2.95-.28.9-.11,1.71-.21,2.45-.31,2.94-.36,4.56-.51,4.56-.51,0,0-1.23,1.01-3.66,2.8-.61.45-1.29.95-2.04,1.5-.77.51-1.61,1.06-2.53,1.65-.93.59-1.92,1.23-2.98,1.92-1.07.65-2.24,1.3-3.48,1.99-.63.34-1.26.7-1.92,1.07-.33.18-.66.36-1,.55-.34.17-.69.34-1.05.52-1.41.69-2.89,1.42-4.46,2.16-1.57.73-3.23,1.39-4.97,2.1-.87.35-1.75.74-2.67,1.05-.92.32-1.85.65-2.8.98-7.62,2.64-16.59,4.85-26.64,6.04-10.04,1.22-21.09,1.25-32.6.09-5.74-.61-11.63-1.47-17.51-2.7-5.92-1.16-11.84-2.67-17.77-4.41-11.86-3.46-23.67-7.91-35.2-12.93-11.54-5.02-22.83-10.58-33.84-16.24-2.73-1.42-5.46-2.85-8.19-4.28-2.73-1.42-5.4-2.87-8.09-4.29-1.34-.71-2.67-1.42-4.01-2.13-1.32-.71-2.65-1.42-3.97-2.14-2.65-1.43-5.28-2.78-7.88-4.2-2.6-1.38-5.19-2.74-7.77-4.1-2.56-1.38-5.12-2.69-7.66-4-1.27-.65-2.53-1.3-3.78-1.95-.63-.32-1.26-.65-1.89-.97-.63-.31-1.26-.62-1.88-.93-1.25-.63-2.49-1.26-3.73-1.88-1.24-.61-2.48-1.21-3.71-1.81-1.23-.61-2.46-1.16-3.68-1.76-1.22-.58-2.44-1.19-3.65-1.73-2.43-1.09-4.83-2.22-7.22-3.26-1.19-.53-2.38-1.06-3.57-1.54-1.19-.51-2.36-1.01-3.54-1.51-1.17-.48-2.34-.93-3.51-1.4-1.17-.47-2.32-.95-3.47-1.36-9.22-3.51-18.1-6.39-26.51-8.44-8.4-2.09-16.32-3.47-23.51-4.33-.9-.1-1.79-.2-2.66-.3-.44-.05-.88-.11-1.31-.16-.43-.04-.85-.07-1.28-.1-1.71-.14-3.35-.27-4.94-.41-3.17-.13-6.14-.36-8.81-.36-1.35-.03-2.63-.06-3.83-.09-1.2,0-2.33,0-3.38.01-1.06,0-2.05,0-2.95,0-.92.03-1.75.06-2.49.08-2.99.1-4.6.09-4.6.09"/>
      </g>
    </g>
  </g>
  <g class="cls-11">
    <g class="cls-3">
      <g class="cls-9">
        <path class="cls-14" d="M98.78,270.83s.8-1.4,2.36-3.94c.4-.64.83-1.34,1.32-2.12.53-.76,1.11-1.58,1.75-2.48.65-.9,1.34-1.87,2.08-2.9.78-.99,1.61-2.03,2.51-3.14,1.76-2.24,3.89-4.54,6.23-7.09,2.42-2.43,5.08-5.1,8.14-7.7,6.07-5.27,13.51-10.67,22.24-15.59,8.72-4.97,18.74-9.31,29.6-12.9,5.43-1.78,11.08-3.39,16.87-4.72,1.45-.33,2.91-.69,4.38-1,1.46-.3,2.94-.59,4.42-.9,1.48-.31,2.97-.55,4.47-.83,1.49-.27,3.01-.54,4.51-.76,6.04-.98,12.16-1.69,18.34-2.34,3.08-.27,6.19-.55,9.29-.77,3.11-.24,6.21-.39,9.33-.57,12.46-.61,24.94-.75,37.23-.73,12.28.05,24.36.22,36.07.23,11.7,0,23.04-.11,33.84-.71.68-.03,1.35-.07,2.03-.1.67-.04,1.34-.09,2-.14,1.34-.08,2.66-.17,3.98-.26,1.31-.11,2.61-.23,3.92-.34,1.31-.08,2.59-.23,3.87-.36,2.57-.23,5.07-.58,7.57-.86,1.26-.14,2.46-.35,3.69-.52,1.22-.19,2.46-.33,3.65-.55,9.6-1.58,18.6-3.64,26.77-6.24,8.18-2.57,15.6-5.58,22.11-8.68,3.28-1.52,6.27-3.14,9.09-4.61,1.39-.79,2.73-1.54,4.01-2.26.32-.18.64-.36.96-.53.3-.19.61-.38.91-.55.6-.37,1.19-.73,1.77-1.07,1.14-.71,2.27-1.34,3.28-1.99,1.02-.66,1.98-1.27,2.86-1.84.9-.58,1.73-1.1,2.49-1.59.75-.52,1.43-.97,2.04-1.39,2.45-1.67,3.83-2.54,3.83-2.54,0,0-.64,1.46-1.98,4.16-.34.68-.71,1.44-1.13,2.27-.45.81-.95,1.68-1.5,2.63-.55.95-1.15,1.97-1.78,3.06-.66,1.08-1.4,2.18-2.19,3.36-.4.59-.81,1.2-1.22,1.82-.21.31-.42.63-.64.94-.23.31-.46.62-.7.93-.94,1.26-1.93,2.58-2.99,3.95-1.06,1.36-2.24,2.71-3.46,4.14-.61.7-1.22,1.46-1.9,2.15-.67.7-1.35,1.42-2.05,2.15-5.58,5.82-12.56,11.88-20.96,17.51-8.38,5.66-18.2,10.72-28.98,14.93-5.39,2.07-11.02,3.99-16.82,5.57-5.79,1.66-11.76,3.02-17.82,4.17-12.14,2.33-24.67,3.74-37.22,4.53-12.56.79-25.14.98-37.52.95-3.08-.02-6.17-.05-9.24-.07-3.07-.02-6.11-.1-9.16-.14-1.51-.02-3.03-.04-4.54-.06-1.51-.03-3.01-.06-4.51-.09-3.01-.07-5.97-.07-8.93-.15-2.94-.04-5.87-.08-8.79-.11-2.91-.06-5.78-.06-8.64-.07-1.43,0-2.84,0-4.26-.01-.71,0-1.41,0-2.12,0l-2.09.03c-1.4.01-2.79.02-4.18.03-1.39.03-2.76.05-4.13.08-1.38.02-2.72.09-4.08.11-1.35.04-2.71.05-4.04.13-2.66.13-5.31.22-7.91.39-1.3.07-2.6.14-3.88.26-1.29.09-2.56.18-3.83.27-1.27.1-2.52.24-3.76.35-1.25.11-2.49.21-3.71.36-9.8,1.08-19.02,2.56-27.44,4.57-8.43,1.97-16.11,4.35-22.9,6.86-.85.32-1.69.63-2.51.94-.41.16-.83.3-1.23.46-.4.17-.8.33-1.19.49-1.58.66-3.11,1.29-4.58,1.89-2.88,1.33-5.63,2.48-8.02,3.7-1.21.59-2.37,1.14-3.45,1.67-1.06.55-2.06,1.07-2.99,1.55-.95.49-1.82.94-2.63,1.35-.8.45-1.53.85-2.18,1.21-2.61,1.45-4.05,2.18-4.05,2.18"/>
      </g>
    </g>
  </g>
  <g class="cls-1">
    <g class="cls-2">
      <g class="cls-10">
        <path class="cls-14" d="M142.98,342.99s-.29-1.58-.71-4.54c-.1-.74-.22-1.57-.35-2.48-.09-.92-.16-1.92-.24-3.02-.08-1.1-.17-2.29-.27-3.56-.04-1.26-.07-2.59-.09-4.02-.09-2.84.07-5.97.24-9.43.29-3.42.63-7.17,1.31-11.13,1.28-7.93,3.52-16.84,7.07-26.22,3.51-9.4,8.41-19.16,14.45-28.88,3.03-4.85,6.33-9.7,9.93-14.44.9-1.18,1.79-2.4,2.71-3.57.94-1.17,1.88-2.34,2.83-3.52.94-1.19,1.92-2.33,2.89-3.5.97-1.17,1.96-2.34,2.98-3.47,4.01-4.63,8.25-9.09,12.58-13.55,2.19-2.18,4.4-4.4,6.64-6.55,2.23-2.18,4.52-4.28,6.8-6.42,9.17-8.45,18.66-16.57,28.1-24.42,9.45-7.84,18.84-15.45,27.83-22.95,8.98-7.51,17.61-14.86,25.52-22.23.5-.46.99-.92,1.49-1.38.48-.46.96-.93,1.45-1.39.97-.92,1.93-1.84,2.89-2.74.93-.93,1.86-1.85,2.79-2.78.95-.9,1.84-1.84,2.74-2.76,1.82-1.83,3.53-3.7,5.26-5.52.88-.91,1.67-1.85,2.5-2.77.81-.93,1.67-1.82,2.44-2.76,6.35-7.38,11.94-14.72,16.54-21.95,4.63-7.22,8.39-14.29,11.41-20.84,1.55-3.27,2.8-6.42,4.02-9.37.57-1.49,1.11-2.93,1.63-4.3.13-.34.26-.69.39-1.02.11-.34.23-.68.34-1.01.22-.67.45-1.32.67-1.95.42-1.27.88-2.47,1.24-3.63.36-1.16.7-2.24,1.02-3.25.32-1.02.62-1.96.89-2.82.24-.88.47-1.67.68-2.38.81-2.85,1.31-4.4,1.31-4.4,0,0,.44,1.53,1.15,4.46.18.73.37,1.56.58,2.46.18.91.34,1.9.53,2.98s.39,2.24.6,3.49c.18,1.24.32,2.57.48,3.98.07.71.15,1.43.23,2.18.04.37.08.75.11,1.13.02.39.04.77.06,1.17.08,1.56.17,3.22.24,4.94.06,1.73.01,3.52,0,5.4-.02.94,0,1.9-.07,2.86-.06.97-.13,1.96-.19,2.96-.55,8.04-2.03,17.17-4.87,26.88-2.8,9.71-7.09,19.9-12.67,30.04-2.81,5.05-5.9,10.13-9.33,15.06-3.39,4.99-7.09,9.85-11.01,14.63-7.83,9.57-16.53,18.69-25.67,27.34-9.14,8.66-18.67,16.87-28.18,24.79-2.38,1.96-4.77,3.91-7.14,5.86-2.37,1.96-4.76,3.85-7.11,5.77-1.18.95-2.35,1.91-3.52,2.86-1.18.94-2.35,1.88-3.52,2.82-2.35,1.88-4.63,3.77-6.95,5.6-2.28,1.86-4.55,3.71-6.81,5.55-2.28,1.82-4.48,3.66-6.68,5.48-1.09.91-2.19,1.82-3.28,2.72-.54.45-1.08.91-1.63,1.35-.53.46-1.06.91-1.59,1.37-1.07.9-2.13,1.8-3.18,2.7-1.05.9-2.08,1.8-3.12,2.7-1.05.89-2.04,1.81-3.06,2.7-1.01.9-2.05,1.77-3.02,2.68-1.96,1.81-3.94,3.58-5.82,5.37-.95.89-1.91,1.78-2.81,2.68-.93.9-1.84,1.78-2.76,2.67-.91.89-1.78,1.79-2.66,2.68-.89.89-1.78,1.76-2.61,2.66-6.83,7.11-12.96,14.16-18.14,21.1-5.21,6.92-9.58,13.67-13.18,19.95-.44.79-.89,1.56-1.32,2.32-.22.39-.44.76-.65,1.14-.2.39-.4.76-.6,1.14-.8,1.52-1.56,2.98-2.3,4.38-1.36,2.86-2.73,5.51-3.78,7.97-.56,1.23-1.08,2.4-1.58,3.49-.47,1.11-.91,2.15-1.31,3.11-.41.98-.8,1.89-1.15,2.71-.33.86-.63,1.64-.9,2.33-1.07,2.79-1.71,4.27-1.71,4.27"/>
      </g>
    </g>
  </g>
  <g class="cls-4">
    <g class="cls-5">
      <g class="cls-6">
        <g class="cls-12">
          <g class="cls-16">
            <path class="cls-14" d="M58.8,139.95h245.73v245.73H58.8v-245.73Z"/>
          </g>
        </g>
      </g>
    </g>
  </g>
  <g class="cls-13">
    <path class="cls-17" d="M476.04,341.84c-33.77,23.54-74.82,37.34-119.09,37.34-115.16,0-208.51-93.35-208.51-208.51C148.43,100.15,183.44,37.8,237.03.06,105.2,5.49,0,114.08,0,247.23s110.76,247.39,247.39,247.39c103.12,0,191.51-63.09,228.65-152.78Z"/>
  </g>
  <path class="cls-14" d="M1233.99,134.85v147.72c0,17.96-8.87,26.32-27.95,26.32h-37.57c-19.55,0-28.26-8.11-28.26-26.32v-147.72h-51.19v150.53c0,23.96,6.47,42.49,19.24,55.06,12.75,12.54,31.53,18.91,55.81,18.91h44.46c24.31,0,43.13-6.35,55.95-18.89,12.89-12.59,19.42-31.14,19.42-55.08v-150.53h-49.93Z"/>
  <path class="cls-14" d="M1507.03,134.85v173.65c0,2.36-.65,5.08-5.71,5.08-3.43,0-5.56-1.42-7.33-4.9l-61.52-134.32c-7.41-20.2-20.69-43.27-57.66-43.27-34.65,0-55.34,19.72-55.34,52.73v175.52h50.56v-173.64c0-3.42.98-5.4,6.04-5.4,3.44,0,5.01.77,6.95,5.09l61.57,134.43c7.41,20.2,20.73,43.27,57.96,43.27,34.65,0,55.34-19.83,55.34-53.04v-175.21h-50.88.01Z"/>
  <path class="cls-14" d="M1737.83,162.67c-8.22-21.54-24.17-31.57-50.2-31.57s-42.25,10.01-50.79,31.48l-77.89,196.77h55.34l68.65-173.83c1.17-2.59,2.25-3.01,4.36-3.01,2.32,0,3.14.57,3.96,2.79l65.85,174.07h55.58l-74.89-196.68v-.02Z"/>
  <path class="cls-14" d="M844.77,203.01v-56.73l.11-10.07h-51.36v66.79h51.25v.02Z"/>
  <path class="cls-14" d="M793.51,267.95l-95.65-124.43-.11-.14-5.89-7.16h-37.41l-7.14,2.95-2.95,7.12v121.72l-95.96-124.51-.12-.14-5.64-7.16h-65.52l11.24,14.85,153.44,199.6.1.14c3.81,4.7,8.98,7.17,14.91,7.17,21.21,0,38.47-17.22,38.47-38.4v-93.4l95.95,124.49.1.13c3.81,4.7,8.97,7.17,14.91,7.17,21.21,0,38.48-17.22,38.48-38.4v-51.61h-51.25l.03-.02Z"/>
  <path class="cls-14" d="M644.36,136.21h10.07l-10.07,10.06"/>
  <path class="cls-14" d="M949.83,215.49h-156.33v39.97h156.33v-39.97Z"/>
  <path class="cls-14" d="M899.27,134.85h50.56v68.16h-50.56v-68.16Z"/>
  <path class="cls-14" d="M986.23,308.89c-32.27,0-36.41-15.73-36.41-29.45v-11.47h-50.56v11.79c0,51.33,30.1,79.6,84.78,79.6h65.53v-50.45h-63.33v-.02Z"/>
</svg>