<?xml version="1.0" encoding="UTF-8"?>
<svg id="Layer_1" xmlns="http://www.w3.org/2000/svg" version="1.1" viewBox="0 0 152.3 125">
  <!-- Generator: Adobe Illustrator 30.1.0, SVG Export Plug-In . SVG Version: 2.1.1 Build 136)  -->
  <defs>
    <style>
      .st0 {
        fill: #837ff3;
      }
    </style>
  </defs>
  <path class="st0" d="M142.1,70.1c0,11.3-9.2,20.4-20.4,20.4h-.3s-31.4,0-31.4,0h-.1c17.9-6.7,32-21.8,37.3-40.2h0c8.6,2.4,14.9,10.3,14.9,19.7Z"/>
  <path class="st0" d="M123.9,43c0,1.7-.2,3.4-.5,5-6.4,24-28.6,42.3-54.5,42.3,13.1-6.3,22.1-19.7,22.1-35.1s-5.5-22.8-14-29.9h0c4.9-5.6,12.1-9,20-9,14.8,0,26.8,12,26.8,26.8Z"/>
  <path class="st0" d="M72.5,26.6c8.8,6.4,14.5,16.8,14.5,28.5,0,18.9-14.9,34.3-33.6,35.1h-6.1c6.7-4.3,11.1-11.8,11.1-20.4,0-12.5-9.4-22.8-21.6-24.1v-.6c1.5-12,11.8-21.3,24.2-21.3s7.9,1,11.3,2.8h0Z"/>
  <ellipse class="st0" cx="33.7" cy="69.8" rx="20.9" ry="20.4"/>
</svg>